<svg id="visual" viewBox="0 0 900 600" width="900" height="600" xmlns="http://www.w3.org/2000/svg" xmlns:xlink="http://www.w3.org/1999/xlink" version="1.1"><rect x="0" y="0" width="900" height="600" fill="#eff4f9"></rect><defs><linearGradient id="grad1_0" x1="33.3%" y1="0%" x2="100%" y2="100%"><stop offset="20%" stop-color="#eff4f9" stop-opacity="1"></stop><stop offset="80%" stop-color="#eff4f9" stop-opacity="1"></stop></linearGradient></defs><defs><linearGradient id="grad2_0" x1="0%" y1="0%" x2="66.7%" y2="100%"><stop offset="20%" stop-color="#eff4f9" stop-opacity="1"></stop><stop offset="80%" stop-color="#eff4f9" stop-opacity="1"></stop></linearGradient></defs><g transform="translate(900, 0)"><path d="M0 405.6C-45.4 378.8 -90.8 352 -138.1 333.5C-185.5 315 -234.9 304.9 -277.2 277.2C-319.4 249.5 -354.5 204.3 -374.7 155.2C-395 106.1 -400.3 53.1 -405.6 0L0 0Z" fill="#fba94c"></path></g><g transform="translate(0, 600)"><path d="M0 -405.6C42 -374.5 83.9 -343.5 136.2 -328.9C188.5 -314.3 251.2 -316.3 286.8 -286.8C322.5 -257.4 331.2 -196.5 346.5 -143.5C361.8 -90.5 383.7 -45.2 405.6 0L0 0Z" fill="#fba94c"></path></g></svg>