<svg id="visual" viewBox="0 0 900 600" width="900" height="600" xmlns="http://www.w3.org/2000/svg" xmlns:xlink="http://www.w3.org/1999/xlink" version="1.1"><rect x="0" y="0" width="900" height="600" fill="#eff4f9"></rect><defs><linearGradient id="grad1_0" x1="33.3%" y1="0%" x2="100%" y2="100%"><stop offset="20%" stop-color="#eff4f9" stop-opacity="1"></stop><stop offset="80%" stop-color="#eff4f9" stop-opacity="1"></stop></linearGradient></defs><defs><linearGradient id="grad2_0" x1="0%" y1="0%" x2="66.7%" y2="100%"><stop offset="20%" stop-color="#eff4f9" stop-opacity="1"></stop><stop offset="80%" stop-color="#eff4f9" stop-opacity="1"></stop></linearGradient></defs><g transform="translate(900, 0)"><path d="M0 486.7C-48.4 448.2 -96.8 409.6 -163 393.6C-229.2 377.6 -313.3 384.2 -344.2 344.2C-375.1 304.1 -352.8 217.4 -367.7 152.3C-382.6 87.2 -434.7 43.6 -486.7 0L0 0Z" fill="#fba94c"></path></g><g transform="translate(0, 600)"><path d="M0 -486.7C49.1 -436.7 98.1 -386.6 149.2 -360.3C200.3 -334 253.5 -331.5 308.3 -308.3C363.1 -285.1 419.7 -241.1 449.7 -186.3C479.7 -131.4 483.2 -65.7 486.7 0L0 0Z" fill="#fba94c"></path></g></svg>