<svg id="visual" viewBox="0 0 900 600" width="900" height="600" xmlns="http://www.w3.org/2000/svg" xmlns:xlink="http://www.w3.org/1999/xlink" version="1.1"><path d="M660 0L603.8 20C547.7 40 435.3 80 397.5 120C359.7 160 396.3 200 399.8 240C403.3 280 373.7 320 351.8 360C330 400 316 440 318.8 480C321.7 520 341.3 560 351.2 580L361 600L0 600L0 580C0 560 0 520 0 480C0 440 0 400 0 360C0 320 0 280 0 240C0 200 0 160 0 120C0 80 0 40 0 20L0 0Z" fill="#fba94c" stroke-linecap="round" stroke-linejoin="miter"></path></svg>