<svg width="528" height="298" viewBox="0 0 528 298" fill="none" xmlns="http://www.w3.org/2000/svg">
<mask id="path-1-inside-1_37_406" fill="white">
<path d="M491.949 51.7878H483.927C483.289 51.7888 482.667 51.5916 482.147 51.2235C481.626 50.8553 481.233 50.3345 481.022 49.7331C480.408 47.971 479.681 46.25 478.847 44.5806C478.559 44.003 478.461 43.3494 478.566 42.7126C478.671 42.0758 478.974 41.4883 479.432 41.0335L485.133 35.3347C485.712 34.7552 486.038 33.9694 486.038 33.1502C486.038 32.331 485.712 31.5453 485.133 30.9657L472.816 18.6594C472.236 18.0803 471.45 17.755 470.63 17.755C469.811 17.755 469.025 18.0803 468.445 18.6594L462.641 24.461C462.189 24.9143 461.607 25.2152 460.975 25.3218C460.344 25.4284 459.695 25.3353 459.119 25.0555C457.481 24.2558 455.793 23.5605 454.067 22.9738C453.458 22.7667 452.93 22.3742 452.557 21.8515C452.183 21.3288 451.983 20.7022 451.984 20.0598V11.841C451.984 11.4356 451.904 11.034 451.749 10.6594C451.594 10.2848 451.366 9.94439 451.08 9.65768C450.793 9.37096 450.452 9.14354 450.077 8.98841C449.703 8.83327 449.301 8.75346 448.895 8.75354H431.482C431.077 8.75346 430.675 8.83327 430.3 8.98841C429.926 9.14354 429.585 9.37096 429.298 9.65768C429.011 9.94439 428.784 10.2848 428.629 10.6594C428.473 11.034 428.394 11.4356 428.394 11.841V20.0598C428.395 20.7022 428.194 21.3288 427.821 21.8515C427.447 22.3742 426.919 22.7667 426.311 22.9738C424.585 23.5604 422.897 24.2557 421.259 25.0555C420.683 25.3353 420.034 25.4284 419.403 25.3218C418.772 25.2152 418.189 24.9143 417.737 24.461L411.933 18.6594C411.353 18.0804 410.567 17.7552 409.748 17.7552C408.928 17.7552 408.142 18.0804 407.562 18.6594L395.244 30.9657C394.665 31.5453 394.339 32.331 394.339 33.1502C394.339 33.9694 394.665 34.7552 395.244 35.3347L400.946 41.0335C401.404 41.4883 401.707 42.0759 401.812 42.7127C401.917 43.3494 401.818 44.003 401.53 44.5806C400.695 46.249 399.971 47.9702 399.361 49.7331C399.148 50.3344 398.754 50.8549 398.232 51.2229C397.711 51.5909 397.088 51.7882 396.45 51.7878H388.428C388.023 51.7876 387.621 51.8674 387.246 52.0225C386.871 52.1776 386.531 52.405 386.244 52.6918C385.957 52.9785 385.729 53.3189 385.574 53.6936C385.419 54.0682 385.339 54.4698 385.339 54.8753V72.2859C385.339 72.6914 385.419 73.0929 385.574 73.4676C385.729 73.8423 385.957 74.1827 386.244 74.4694C386.531 74.7561 386.871 74.9836 387.246 75.1387C387.621 75.2938 388.023 75.3735 388.428 75.3734H396.24C396.889 75.3729 397.523 75.5776 398.049 75.9583C398.575 76.3389 398.968 76.8761 399.171 77.493C399.773 79.3027 400.495 81.0709 401.329 82.7862C401.612 83.364 401.708 84.0157 401.604 84.6506C401.499 85.2854 401.199 85.8718 400.745 86.3281L395.243 91.827C394.956 92.1135 394.728 92.4537 394.573 92.8283C394.418 93.2028 394.338 93.6043 394.338 94.0098C394.338 94.4153 394.418 94.8168 394.573 95.1913C394.728 95.5659 394.956 95.9061 395.243 96.1926L407.561 108.502C408.141 109.081 408.927 109.407 409.746 109.407C410.566 109.407 411.352 109.081 411.932 108.502L417.325 103.111C417.784 102.653 418.376 102.351 419.017 102.248C419.658 102.145 420.315 102.246 420.895 102.537C422.64 103.408 424.442 104.16 426.289 104.786C426.901 104.993 427.433 105.387 427.81 105.912C428.188 106.436 428.391 107.066 428.392 107.712V115.314C428.392 115.72 428.471 116.122 428.626 116.497C428.781 116.872 429.008 117.213 429.295 117.501C429.582 117.788 429.923 118.016 430.298 118.171C430.673 118.327 431.075 118.407 431.481 118.407H448.894C449.3 118.407 449.702 118.327 450.077 118.171C450.452 118.016 450.793 117.788 451.08 117.501C451.367 117.213 451.594 116.872 451.749 116.497C451.904 116.122 451.984 115.72 451.983 115.314V107.713C451.984 107.067 452.188 106.438 452.565 105.913C452.942 105.388 453.475 104.995 454.087 104.788C455.934 104.161 457.736 103.41 459.48 102.538C460.06 102.247 460.717 102.146 461.358 102.249C461.999 102.353 462.591 102.655 463.051 103.113L468.444 108.504C469.024 109.083 469.81 109.408 470.629 109.408C471.449 109.408 472.235 109.083 472.814 108.504L485.132 96.1914C485.419 95.905 485.647 95.5647 485.802 95.1902C485.958 94.8156 486.038 94.4141 486.038 94.0087C486.038 93.6032 485.958 93.2017 485.802 92.8271C485.647 92.4526 485.419 92.1123 485.132 91.8259L479.631 86.327C479.177 85.8707 478.877 85.2843 478.772 84.6494C478.667 84.0146 478.763 83.3629 479.046 82.7851C479.881 81.0699 480.602 79.3017 481.205 77.4918C481.407 76.8749 481.8 76.3378 482.326 75.9571C482.853 75.5765 483.486 75.3718 484.136 75.3722H491.947C492.352 75.3724 492.754 75.2926 493.129 75.1375C493.504 74.9824 493.844 74.755 494.131 74.4683C494.418 74.1815 494.645 73.8411 494.801 73.4665C494.956 73.0918 495.036 72.6902 495.035 72.2847V54.8753C495.036 54.47 494.956 54.0686 494.801 53.6941C494.646 53.3196 494.418 52.9793 494.132 52.6926C493.845 52.4059 493.505 52.1784 493.13 52.0232C492.756 51.8679 492.354 51.7879 491.949 51.7878ZM440.191 89.3076C435.1 89.3081 430.123 87.7994 425.889 84.9724C421.656 82.1454 418.356 78.1271 416.408 73.4255C414.459 68.724 413.949 63.5505 414.942 58.5593C415.936 53.5681 418.387 48.9834 421.987 45.3849C425.587 41.7865 430.174 39.3359 435.168 38.3432C440.161 37.3505 445.337 37.8603 450.041 39.8079C454.744 41.7556 458.764 45.0538 461.593 49.2853C464.421 53.5168 465.93 58.4916 465.93 63.5806C465.929 70.4036 463.217 76.9469 458.39 81.7715C453.563 86.5961 447.017 89.3069 440.191 89.3076Z"/>
</mask>
<path d="M491.949 51.7878H483.927C483.289 51.7888 482.667 51.5916 482.147 51.2235C481.626 50.8553 481.233 50.3345 481.022 49.7331C480.408 47.971 479.681 46.25 478.847 44.5806C478.559 44.003 478.461 43.3494 478.566 42.7126C478.671 42.0758 478.974 41.4883 479.432 41.0335L485.133 35.3347C485.712 34.7552 486.038 33.9694 486.038 33.1502C486.038 32.331 485.712 31.5453 485.133 30.9657L472.816 18.6594C472.236 18.0803 471.45 17.755 470.63 17.755C469.811 17.755 469.025 18.0803 468.445 18.6594L462.641 24.461C462.189 24.9143 461.607 25.2152 460.975 25.3218C460.344 25.4284 459.695 25.3353 459.119 25.0555C457.481 24.2558 455.793 23.5605 454.067 22.9738C453.458 22.7667 452.93 22.3742 452.557 21.8515C452.183 21.3288 451.983 20.7022 451.984 20.0598V11.841C451.984 11.4356 451.904 11.034 451.749 10.6594C451.594 10.2848 451.366 9.94439 451.08 9.65768C450.793 9.37096 450.452 9.14354 450.077 8.98841C449.703 8.83327 449.301 8.75346 448.895 8.75354H431.482C431.077 8.75346 430.675 8.83327 430.3 8.98841C429.926 9.14354 429.585 9.37096 429.298 9.65768C429.011 9.94439 428.784 10.2848 428.629 10.6594C428.473 11.034 428.394 11.4356 428.394 11.841V20.0598C428.395 20.7022 428.194 21.3288 427.821 21.8515C427.447 22.3742 426.919 22.7667 426.311 22.9738C424.585 23.5604 422.897 24.2557 421.259 25.0555C420.683 25.3353 420.034 25.4284 419.403 25.3218C418.772 25.2152 418.189 24.9143 417.737 24.461L411.933 18.6594C411.353 18.0804 410.567 17.7552 409.748 17.7552C408.928 17.7552 408.142 18.0804 407.562 18.6594L395.244 30.9657C394.665 31.5453 394.339 32.331 394.339 33.1502C394.339 33.9694 394.665 34.7552 395.244 35.3347L400.946 41.0335C401.404 41.4883 401.707 42.0759 401.812 42.7127C401.917 43.3494 401.818 44.003 401.53 44.5806C400.695 46.249 399.971 47.9702 399.361 49.7331C399.148 50.3344 398.754 50.8549 398.232 51.2229C397.711 51.5909 397.088 51.7882 396.45 51.7878H388.428C388.023 51.7876 387.621 51.8674 387.246 52.0225C386.871 52.1776 386.531 52.405 386.244 52.6918C385.957 52.9785 385.729 53.3189 385.574 53.6936C385.419 54.0682 385.339 54.4698 385.339 54.8753V72.2859C385.339 72.6914 385.419 73.0929 385.574 73.4676C385.729 73.8423 385.957 74.1827 386.244 74.4694C386.531 74.7561 386.871 74.9836 387.246 75.1387C387.621 75.2938 388.023 75.3735 388.428 75.3734H396.24C396.889 75.3729 397.523 75.5776 398.049 75.9583C398.575 76.3389 398.968 76.8761 399.171 77.493C399.773 79.3027 400.495 81.0709 401.329 82.7862C401.612 83.364 401.708 84.0157 401.604 84.6506C401.499 85.2854 401.199 85.8718 400.745 86.3281L395.243 91.827C394.956 92.1135 394.728 92.4537 394.573 92.8283C394.418 93.2028 394.338 93.6043 394.338 94.0098C394.338 94.4153 394.418 94.8168 394.573 95.1913C394.728 95.5659 394.956 95.9061 395.243 96.1926L407.561 108.502C408.141 109.081 408.927 109.407 409.746 109.407C410.566 109.407 411.352 109.081 411.932 108.502L417.325 103.111C417.784 102.653 418.376 102.351 419.017 102.248C419.658 102.145 420.315 102.246 420.895 102.537C422.64 103.408 424.442 104.16 426.289 104.786C426.901 104.993 427.433 105.387 427.81 105.912C428.188 106.436 428.391 107.066 428.392 107.712V115.314C428.392 115.72 428.471 116.122 428.626 116.497C428.781 116.872 429.008 117.213 429.295 117.501C429.582 117.788 429.923 118.016 430.298 118.171C430.673 118.327 431.075 118.407 431.481 118.407H448.894C449.3 118.407 449.702 118.327 450.077 118.171C450.452 118.016 450.793 117.788 451.08 117.501C451.367 117.213 451.594 116.872 451.749 116.497C451.904 116.122 451.984 115.72 451.983 115.314V107.713C451.984 107.067 452.188 106.438 452.565 105.913C452.942 105.388 453.475 104.995 454.087 104.788C455.934 104.161 457.736 103.41 459.48 102.538C460.06 102.247 460.717 102.146 461.358 102.249C461.999 102.353 462.591 102.655 463.051 103.113L468.444 108.504C469.024 109.083 469.81 109.408 470.629 109.408C471.449 109.408 472.235 109.083 472.814 108.504L485.132 96.1914C485.419 95.905 485.647 95.5647 485.802 95.1902C485.958 94.8156 486.038 94.4141 486.038 94.0087C486.038 93.6032 485.958 93.2017 485.802 92.8271C485.647 92.4526 485.419 92.1123 485.132 91.8259L479.631 86.327C479.177 85.8707 478.877 85.2843 478.772 84.6494C478.667 84.0146 478.763 83.3629 479.046 82.7851C479.881 81.0699 480.602 79.3017 481.205 77.4918C481.407 76.8749 481.8 76.3378 482.326 75.9571C482.853 75.5765 483.486 75.3718 484.136 75.3722H491.947C492.352 75.3724 492.754 75.2926 493.129 75.1375C493.504 74.9824 493.844 74.755 494.131 74.4683C494.418 74.1815 494.645 73.8411 494.801 73.4665C494.956 73.0918 495.036 72.6902 495.035 72.2847V54.8753C495.036 54.47 494.956 54.0686 494.801 53.6941C494.646 53.3196 494.418 52.9793 494.132 52.6926C493.845 52.4059 493.505 52.1784 493.13 52.0232C492.756 51.8679 492.354 51.7879 491.949 51.7878ZM440.191 89.3076C435.1 89.3081 430.123 87.7994 425.889 84.9724C421.656 82.1454 418.356 78.1271 416.408 73.4255C414.459 68.724 413.949 63.5505 414.942 58.5593C415.936 53.5681 418.387 48.9834 421.987 45.3849C425.587 41.7865 430.174 39.3359 435.168 38.3432C440.161 37.3505 445.337 37.8603 450.041 39.8079C454.744 41.7556 458.764 45.0538 461.593 49.2853C464.421 53.5168 465.93 58.4916 465.93 63.5806C465.929 70.4036 463.217 76.9469 458.39 81.7715C453.563 86.5961 447.017 89.3069 440.191 89.3076Z" fill="#34475B" stroke="#EFF4F9" stroke-width="2" mask="url(#path-1-inside-1_37_406)"/>
<mask id="path-2-inside-2_37_406" fill="white">
<path d="M150.8 239.614H144.908C144.439 239.615 143.982 239.47 143.6 239.199C143.218 238.929 142.929 238.546 142.774 238.104C142.323 236.81 141.789 235.546 141.176 234.319C140.965 233.895 140.893 233.415 140.97 232.947C141.047 232.48 141.269 232.048 141.606 231.714L145.796 227.527C146.221 227.101 146.46 226.524 146.46 225.922C146.46 225.321 146.221 224.743 145.796 224.318L136.748 215.279C136.323 214.853 135.745 214.614 135.143 214.614C134.541 214.614 133.964 214.853 133.538 215.279L129.275 219.54C128.943 219.873 128.515 220.094 128.052 220.172C127.588 220.25 127.112 220.182 126.689 219.977C125.485 219.389 124.246 218.879 122.978 218.448C122.531 218.296 122.143 218.007 121.869 217.623C121.594 217.239 121.447 216.779 121.448 216.307V210.271C121.448 209.974 121.39 209.679 121.276 209.404C121.162 209.128 120.995 208.878 120.784 208.668C120.573 208.457 120.323 208.29 120.048 208.176C119.772 208.062 119.477 208.004 119.179 208.004H106.385C106.087 208.004 105.792 208.062 105.517 208.176C105.242 208.29 104.992 208.457 104.781 208.668C104.57 208.878 104.403 209.128 104.289 209.404C104.175 209.679 104.116 209.974 104.117 210.271V216.309C104.117 216.78 103.97 217.241 103.696 217.625C103.422 218.009 103.034 218.297 102.587 218.449C101.319 218.88 100.079 219.391 98.876 219.978C98.4532 220.183 97.9767 220.252 97.5131 220.174C97.0495 220.095 96.6219 219.874 96.29 219.541L92.0265 215.28C91.6006 214.854 91.0232 214.615 90.4211 214.615C89.819 214.615 89.2416 214.854 88.8157 215.28L79.7686 224.319C79.343 224.745 79.104 225.322 79.104 225.923C79.104 226.525 79.343 227.102 79.7686 227.528L83.9563 231.714C84.2926 232.048 84.5152 232.48 84.5922 232.947C84.6693 233.415 84.597 233.895 84.3856 234.319C83.7727 235.545 83.2403 236.809 82.792 238.104C82.6357 238.546 82.3462 238.928 81.9634 239.199C81.5807 239.469 81.1234 239.614 80.6548 239.614H74.7614C74.4635 239.614 74.1684 239.672 73.8931 239.786C73.6178 239.9 73.3677 240.067 73.157 240.278C72.9463 240.489 72.7792 240.739 72.6652 241.014C72.5512 241.289 72.4925 241.584 72.4926 241.882V254.67C72.4925 254.968 72.5512 255.263 72.6652 255.538C72.7792 255.813 72.9463 256.063 73.157 256.274C73.3677 256.484 73.6178 256.651 73.8931 256.765C74.1684 256.879 74.4635 256.938 74.7614 256.938H80.499C80.9763 256.937 81.4415 257.087 81.8283 257.367C82.215 257.647 82.5034 258.041 82.6523 258.494C83.0953 259.824 83.6249 261.123 84.2379 262.383C84.446 262.807 84.5165 263.286 84.4396 263.752C84.3626 264.218 84.142 264.649 83.8086 264.984L79.768 269.024C79.5573 269.234 79.3901 269.484 79.2761 269.759C79.162 270.033 79.1033 270.328 79.1033 270.626C79.1033 270.923 79.162 271.218 79.2761 271.493C79.3901 271.768 79.5573 272.018 79.768 272.228L88.8152 281.272C89.241 281.697 89.8185 281.936 90.4205 281.936C91.0226 281.936 91.6 281.697 92.0259 281.272L95.9871 277.312C96.3247 276.975 96.7597 276.754 97.2303 276.678C97.701 276.603 98.1835 276.677 98.6094 276.891C99.891 277.531 101.215 278.083 102.571 278.543C103.021 278.695 103.412 278.984 103.689 279.37C103.966 279.755 104.116 280.217 104.117 280.692V286.276C104.116 286.574 104.174 286.87 104.288 287.145C104.402 287.421 104.569 287.671 104.78 287.882C104.991 288.093 105.241 288.26 105.516 288.374C105.792 288.489 106.087 288.547 106.385 288.547H119.176C119.474 288.547 119.769 288.489 120.045 288.374C120.32 288.26 120.571 288.093 120.781 287.882C120.992 287.671 121.159 287.421 121.273 287.145C121.387 286.87 121.445 286.574 121.445 286.276V280.692C121.446 280.217 121.595 279.755 121.872 279.37C122.149 278.984 122.54 278.695 122.99 278.543C124.347 278.083 125.67 277.531 126.952 276.891C127.378 276.677 127.86 276.603 128.331 276.678C128.802 276.754 129.237 276.975 129.574 277.312L133.535 281.272C133.961 281.697 134.539 281.936 135.141 281.936C135.743 281.936 136.32 281.697 136.746 281.272L145.796 272.228C146.006 272.018 146.173 271.768 146.287 271.493C146.402 271.218 146.46 270.923 146.46 270.626C146.46 270.328 146.402 270.033 146.287 269.759C146.173 269.484 146.006 269.234 145.796 269.024L141.755 264.984C141.422 264.649 141.201 264.218 141.124 263.752C141.047 263.286 141.118 262.807 141.326 262.383C141.939 261.123 142.468 259.824 142.911 258.494C143.06 258.041 143.349 257.647 143.735 257.367C144.122 257.087 144.587 256.937 145.065 256.938H150.802C151.1 256.938 151.395 256.879 151.67 256.765C151.946 256.651 152.196 256.484 152.407 256.274C152.617 256.063 152.784 255.813 152.898 255.538C153.012 255.263 153.071 254.968 153.071 254.67V241.882C153.071 241.584 153.012 241.289 152.898 241.013C152.784 240.738 152.617 240.488 152.406 240.277C152.195 240.066 151.944 239.899 151.669 239.786C151.393 239.672 151.098 239.614 150.8 239.614ZM112.783 267.173C109.043 267.173 105.388 266.064 102.279 263.988C99.1693 261.911 96.746 258.96 95.315 255.506C93.884 252.053 93.5095 248.253 94.2391 244.588C94.9686 240.922 96.7693 237.554 99.4135 234.911C102.058 232.268 105.427 230.468 109.094 229.739C112.762 229.01 116.563 229.384 120.018 230.815C123.473 232.245 126.426 234.667 128.503 237.775C130.581 240.883 131.69 244.537 131.69 248.274C131.69 250.756 131.2 253.214 130.25 255.506C129.3 257.799 127.907 259.883 126.152 261.638C124.396 263.392 122.312 264.784 120.018 265.734C117.724 266.684 115.266 267.173 112.783 267.173Z"/>
</mask>
<path d="M150.8 239.614H144.908C144.439 239.615 143.982 239.47 143.6 239.199C143.218 238.929 142.929 238.546 142.774 238.104C142.323 236.81 141.789 235.546 141.176 234.319C140.965 233.895 140.893 233.415 140.97 232.947C141.047 232.48 141.269 232.048 141.606 231.714L145.796 227.527C146.221 227.101 146.46 226.524 146.46 225.922C146.46 225.321 146.221 224.743 145.796 224.318L136.748 215.279C136.323 214.853 135.745 214.614 135.143 214.614C134.541 214.614 133.964 214.853 133.538 215.279L129.275 219.54C128.943 219.873 128.515 220.094 128.052 220.172C127.588 220.25 127.112 220.182 126.689 219.977C125.485 219.389 124.246 218.879 122.978 218.448C122.531 218.296 122.143 218.007 121.869 217.623C121.594 217.239 121.447 216.779 121.448 216.307V210.271C121.448 209.974 121.39 209.679 121.276 209.404C121.162 209.128 120.995 208.878 120.784 208.668C120.573 208.457 120.323 208.29 120.048 208.176C119.772 208.062 119.477 208.004 119.179 208.004H106.385C106.087 208.004 105.792 208.062 105.517 208.176C105.242 208.29 104.992 208.457 104.781 208.668C104.57 208.878 104.403 209.128 104.289 209.404C104.175 209.679 104.116 209.974 104.117 210.271V216.309C104.117 216.78 103.97 217.241 103.696 217.625C103.422 218.009 103.034 218.297 102.587 218.449C101.319 218.88 100.079 219.391 98.876 219.978C98.4532 220.183 97.9767 220.252 97.5131 220.174C97.0495 220.095 96.6219 219.874 96.29 219.541L92.0265 215.28C91.6006 214.854 91.0232 214.615 90.4211 214.615C89.819 214.615 89.2416 214.854 88.8157 215.28L79.7686 224.319C79.343 224.745 79.104 225.322 79.104 225.923C79.104 226.525 79.343 227.102 79.7686 227.528L83.9563 231.714C84.2926 232.048 84.5152 232.48 84.5922 232.947C84.6693 233.415 84.597 233.895 84.3856 234.319C83.7727 235.545 83.2403 236.809 82.792 238.104C82.6357 238.546 82.3462 238.928 81.9634 239.199C81.5807 239.469 81.1234 239.614 80.6548 239.614H74.7614C74.4635 239.614 74.1684 239.672 73.8931 239.786C73.6178 239.9 73.3677 240.067 73.157 240.278C72.9463 240.489 72.7792 240.739 72.6652 241.014C72.5512 241.289 72.4925 241.584 72.4926 241.882V254.67C72.4925 254.968 72.5512 255.263 72.6652 255.538C72.7792 255.813 72.9463 256.063 73.157 256.274C73.3677 256.484 73.6178 256.651 73.8931 256.765C74.1684 256.879 74.4635 256.938 74.7614 256.938H80.499C80.9763 256.937 81.4415 257.087 81.8283 257.367C82.215 257.647 82.5034 258.041 82.6523 258.494C83.0953 259.824 83.6249 261.123 84.2379 262.383C84.446 262.807 84.5165 263.286 84.4396 263.752C84.3626 264.218 84.142 264.649 83.8086 264.984L79.768 269.024C79.5573 269.234 79.3901 269.484 79.2761 269.759C79.162 270.033 79.1033 270.328 79.1033 270.626C79.1033 270.923 79.162 271.218 79.2761 271.493C79.3901 271.768 79.5573 272.018 79.768 272.228L88.8152 281.272C89.241 281.697 89.8185 281.936 90.4205 281.936C91.0226 281.936 91.6 281.697 92.0259 281.272L95.9871 277.312C96.3247 276.975 96.7597 276.754 97.2303 276.678C97.701 276.603 98.1835 276.677 98.6094 276.891C99.891 277.531 101.215 278.083 102.571 278.543C103.021 278.695 103.412 278.984 103.689 279.37C103.966 279.755 104.116 280.217 104.117 280.692V286.276C104.116 286.574 104.174 286.87 104.288 287.145C104.402 287.421 104.569 287.671 104.78 287.882C104.991 288.093 105.241 288.26 105.516 288.374C105.792 288.489 106.087 288.547 106.385 288.547H119.176C119.474 288.547 119.769 288.489 120.045 288.374C120.32 288.26 120.571 288.093 120.781 287.882C120.992 287.671 121.159 287.421 121.273 287.145C121.387 286.87 121.445 286.574 121.445 286.276V280.692C121.446 280.217 121.595 279.755 121.872 279.37C122.149 278.984 122.54 278.695 122.99 278.543C124.347 278.083 125.67 277.531 126.952 276.891C127.378 276.677 127.86 276.603 128.331 276.678C128.802 276.754 129.237 276.975 129.574 277.312L133.535 281.272C133.961 281.697 134.539 281.936 135.141 281.936C135.743 281.936 136.32 281.697 136.746 281.272L145.796 272.228C146.006 272.018 146.173 271.768 146.287 271.493C146.402 271.218 146.46 270.923 146.46 270.626C146.46 270.328 146.402 270.033 146.287 269.759C146.173 269.484 146.006 269.234 145.796 269.024L141.755 264.984C141.422 264.649 141.201 264.218 141.124 263.752C141.047 263.286 141.118 262.807 141.326 262.383C141.939 261.123 142.468 259.824 142.911 258.494C143.06 258.041 143.349 257.647 143.735 257.367C144.122 257.087 144.587 256.937 145.065 256.938H150.802C151.1 256.938 151.395 256.879 151.67 256.765C151.946 256.651 152.196 256.484 152.407 256.274C152.617 256.063 152.784 255.813 152.898 255.538C153.012 255.263 153.071 254.968 153.071 254.67V241.882C153.071 241.584 153.012 241.289 152.898 241.013C152.784 240.738 152.617 240.488 152.406 240.277C152.195 240.066 151.944 239.899 151.669 239.786C151.393 239.672 151.098 239.614 150.8 239.614ZM112.783 267.173C109.043 267.173 105.388 266.064 102.279 263.988C99.1693 261.911 96.746 258.96 95.315 255.506C93.884 252.053 93.5095 248.253 94.2391 244.588C94.9686 240.922 96.7693 237.554 99.4135 234.911C102.058 232.268 105.427 230.468 109.094 229.739C112.762 229.01 116.563 229.384 120.018 230.815C123.473 232.245 126.426 234.667 128.503 237.775C130.581 240.883 131.69 244.537 131.69 248.274C131.69 250.756 131.2 253.214 130.25 255.506C129.3 257.799 127.907 259.883 126.152 261.638C124.396 263.392 122.312 264.784 120.018 265.734C117.724 266.684 115.266 267.173 112.783 267.173Z" fill="#34475B" stroke="#EFF4F9" stroke-width="2" mask="url(#path-2-inside-2_37_406)"/>
<mask id="path-3-inside-3_37_406" fill="white">
<path d="M106.61 135.112H98.5876C97.95 135.113 97.3278 134.916 96.8073 134.548C96.2869 134.18 95.8938 133.659 95.6826 133.058C95.0684 131.295 94.342 129.574 93.508 127.905C93.2199 127.327 93.1214 126.673 93.2263 126.037C93.3312 125.4 93.6343 124.812 94.0924 124.358L99.7938 118.659C100.373 118.079 100.698 117.293 100.698 116.474C100.698 115.655 100.373 114.869 99.7938 114.29L87.4768 101.983C86.8969 101.404 86.1109 101.079 85.2913 101.079C84.4717 101.079 83.6856 101.404 83.1058 101.983L77.3015 107.785C76.8497 108.238 76.2674 108.54 75.636 108.646C75.0046 108.753 74.3557 108.66 73.7799 108.379C72.1413 107.58 70.4538 106.884 68.7273 106.298C68.119 106.091 67.591 105.698 67.2174 105.175C66.8438 104.653 66.6435 104.026 66.6447 103.384V95.165C66.6449 94.7595 66.5651 94.358 66.4099 93.9833C66.2547 93.6086 66.0272 93.2682 65.7403 92.9815C65.4535 92.6948 65.1129 92.4673 64.7381 92.3122C64.3632 92.1571 63.9615 92.0774 63.5558 92.0775H46.1431C45.7375 92.0774 45.3358 92.1573 44.961 92.3124C44.5863 92.4675 44.2458 92.695 43.959 92.9817C43.6722 93.2684 43.4447 93.6088 43.2896 93.9834C43.1344 94.3581 43.0546 94.7596 43.0548 95.165V103.384C43.0559 104.026 42.8556 104.653 42.482 105.175C42.1085 105.698 41.5804 106.091 40.9722 106.298C39.2456 106.884 37.5581 107.58 35.9196 108.379C35.3438 108.66 34.6949 108.753 34.0635 108.646C33.4321 108.54 32.8498 108.238 32.398 107.785L26.5938 101.983C26.0139 101.404 25.2278 101.079 24.4083 101.079C23.5887 101.079 22.8026 101.404 22.2228 101.983L9.90456 114.29C9.32531 114.869 8.99995 115.655 8.99995 116.474C8.99995 117.293 9.32531 118.079 9.90456 118.659L15.6065 124.358C16.0646 124.812 16.3675 125.4 16.4723 126.037C16.5772 126.673 16.4785 127.327 16.1904 127.905C15.3558 129.573 14.6313 131.295 14.0215 133.058C13.8084 133.659 13.414 134.179 12.8928 134.547C12.3715 134.915 11.749 135.113 11.1108 135.112H3.08889C2.68324 135.112 2.28151 135.192 1.90669 135.347C1.53186 135.502 1.19128 135.729 0.904413 136.016C0.617546 136.303 0.390016 136.643 0.234832 137.018C0.0796469 137.392 -0.000150607 137.794 4.81707e-07 138.199V155.61C-0.000226147 156.015 0.0795156 156.417 0.234667 156.792C0.389817 157.166 0.617335 157.507 0.90421 157.794C1.19108 158.08 1.53169 158.308 1.90655 158.463C2.28142 158.618 2.68319 158.698 3.08889 158.697H10.8999C11.5495 158.697 12.1826 158.902 12.7089 159.282C13.2352 159.663 13.6279 160.2 13.8308 160.817C14.4336 162.627 15.1546 164.395 15.9892 166.111C16.2724 166.689 16.3683 167.34 16.2635 167.975C16.1588 168.61 15.8586 169.196 15.4048 169.652L9.90341 175.151C9.61636 175.437 9.38863 175.778 9.23325 176.152C9.07788 176.527 8.9979 176.928 8.9979 177.334C8.9979 177.739 9.07788 178.141 9.23325 178.515C9.38863 178.89 9.61636 179.23 9.90341 179.517L22.221 191.828C22.8009 192.407 23.5869 192.732 24.4065 192.732C25.2261 192.732 26.0122 192.407 26.592 191.828L31.9848 186.437C32.4443 185.979 33.0364 185.677 33.6772 185.574C34.3181 185.471 34.9751 185.572 35.5553 185.863C37.2999 186.734 39.1018 187.485 40.9486 188.112C41.561 188.319 42.0933 188.712 42.4707 189.237C42.8481 189.761 43.0517 190.391 43.0531 191.037V198.64C43.0524 199.045 43.1318 199.447 43.2867 199.822C43.4416 200.198 43.6689 200.539 43.9558 200.826C44.2426 201.113 44.5833 201.341 44.9583 201.496C45.3333 201.652 45.7354 201.732 46.1414 201.732H63.5541C63.9602 201.732 64.3623 201.652 64.7374 201.497C65.1125 201.341 65.4532 201.113 65.7401 200.826C66.027 200.539 66.2544 200.198 66.4094 199.823C66.5643 199.447 66.6437 199.045 66.643 198.64V191.037C66.6443 190.391 66.848 189.761 67.2254 189.237C67.6028 188.712 68.135 188.319 68.7475 188.112C70.5941 187.485 72.3958 186.734 74.1402 185.863C74.7204 185.572 75.3774 185.471 76.0182 185.574C76.6591 185.677 77.2512 185.979 77.7107 186.437L83.104 191.828C83.6839 192.407 84.4699 192.732 85.2895 192.732C86.1091 192.732 86.8952 192.407 87.475 191.828L99.7921 179.517C100.079 179.23 100.307 178.89 100.462 178.515C100.618 178.141 100.698 177.739 100.698 177.334C100.698 176.928 100.618 176.527 100.462 176.152C100.307 175.778 100.079 175.437 99.7921 175.151L94.2907 169.652C93.8369 169.196 93.5367 168.61 93.432 167.975C93.3272 167.34 93.4231 166.689 93.7063 166.111C94.5411 164.395 95.2622 162.627 95.8647 160.817C96.0676 160.2 96.4602 159.663 96.9866 159.282C97.5129 158.902 98.146 158.697 98.7956 158.697H106.607C107.013 158.698 107.415 158.618 107.789 158.463C108.164 158.308 108.505 158.08 108.791 157.793C109.078 157.507 109.306 157.166 109.461 156.792C109.616 156.417 109.696 156.015 109.695 155.61V138.199C109.696 137.381 109.371 136.596 108.792 136.017C108.214 135.438 107.429 135.113 106.61 135.112ZM54.8518 172.632C49.7605 172.632 44.7834 171.123 40.55 168.296C36.3166 165.469 33.0169 161.451 31.0684 156.75C29.1198 152.048 28.6099 146.874 29.603 141.883C30.5962 136.892 33.0478 132.307 36.6479 128.709C40.248 125.11 44.8348 122.66 49.8282 121.667C54.8217 120.675 59.9975 121.184 64.7012 123.132C69.4048 125.08 73.425 128.378 76.2532 132.609C79.0815 136.841 80.5909 141.816 80.5904 146.905C80.5896 153.728 77.8777 160.271 73.0509 165.095C68.2241 169.92 61.6778 172.631 54.8518 172.632Z"/>
</mask>
<path d="M106.61 135.112H98.5876C97.95 135.113 97.3278 134.916 96.8073 134.548C96.2869 134.18 95.8938 133.659 95.6826 133.058C95.0684 131.295 94.342 129.574 93.508 127.905C93.2199 127.327 93.1214 126.673 93.2263 126.037C93.3312 125.4 93.6343 124.812 94.0924 124.358L99.7938 118.659C100.373 118.079 100.698 117.293 100.698 116.474C100.698 115.655 100.373 114.869 99.7938 114.29L87.4768 101.983C86.8969 101.404 86.1109 101.079 85.2913 101.079C84.4717 101.079 83.6856 101.404 83.1058 101.983L77.3015 107.785C76.8497 108.238 76.2674 108.54 75.636 108.646C75.0046 108.753 74.3557 108.66 73.7799 108.379C72.1413 107.58 70.4538 106.884 68.7273 106.298C68.119 106.091 67.591 105.698 67.2174 105.175C66.8438 104.653 66.6435 104.026 66.6447 103.384V95.165C66.6449 94.7595 66.5651 94.358 66.4099 93.9833C66.2547 93.6086 66.0272 93.2682 65.7403 92.9815C65.4535 92.6948 65.1129 92.4673 64.7381 92.3122C64.3632 92.1571 63.9615 92.0774 63.5558 92.0775H46.1431C45.7375 92.0774 45.3358 92.1573 44.961 92.3124C44.5863 92.4675 44.2458 92.695 43.959 92.9817C43.6722 93.2684 43.4447 93.6088 43.2896 93.9834C43.1344 94.3581 43.0546 94.7596 43.0548 95.165V103.384C43.0559 104.026 42.8556 104.653 42.482 105.175C42.1085 105.698 41.5804 106.091 40.9722 106.298C39.2456 106.884 37.5581 107.58 35.9196 108.379C35.3438 108.66 34.6949 108.753 34.0635 108.646C33.4321 108.54 32.8498 108.238 32.398 107.785L26.5938 101.983C26.0139 101.404 25.2278 101.079 24.4083 101.079C23.5887 101.079 22.8026 101.404 22.2228 101.983L9.90456 114.29C9.32531 114.869 8.99995 115.655 8.99995 116.474C8.99995 117.293 9.32531 118.079 9.90456 118.659L15.6065 124.358C16.0646 124.812 16.3675 125.4 16.4723 126.037C16.5772 126.673 16.4785 127.327 16.1904 127.905C15.3558 129.573 14.6313 131.295 14.0215 133.058C13.8084 133.659 13.414 134.179 12.8928 134.547C12.3715 134.915 11.749 135.113 11.1108 135.112H3.08889C2.68324 135.112 2.28151 135.192 1.90669 135.347C1.53186 135.502 1.19128 135.729 0.904413 136.016C0.617546 136.303 0.390016 136.643 0.234832 137.018C0.0796469 137.392 -0.000150607 137.794 4.81707e-07 138.199V155.61C-0.000226147 156.015 0.0795156 156.417 0.234667 156.792C0.389817 157.166 0.617335 157.507 0.90421 157.794C1.19108 158.08 1.53169 158.308 1.90655 158.463C2.28142 158.618 2.68319 158.698 3.08889 158.697H10.8999C11.5495 158.697 12.1826 158.902 12.7089 159.282C13.2352 159.663 13.6279 160.2 13.8308 160.817C14.4336 162.627 15.1546 164.395 15.9892 166.111C16.2724 166.689 16.3683 167.34 16.2635 167.975C16.1588 168.61 15.8586 169.196 15.4048 169.652L9.90341 175.151C9.61636 175.437 9.38863 175.778 9.23325 176.152C9.07788 176.527 8.9979 176.928 8.9979 177.334C8.9979 177.739 9.07788 178.141 9.23325 178.515C9.38863 178.89 9.61636 179.23 9.90341 179.517L22.221 191.828C22.8009 192.407 23.5869 192.732 24.4065 192.732C25.2261 192.732 26.0122 192.407 26.592 191.828L31.9848 186.437C32.4443 185.979 33.0364 185.677 33.6772 185.574C34.3181 185.471 34.9751 185.572 35.5553 185.863C37.2999 186.734 39.1018 187.485 40.9486 188.112C41.561 188.319 42.0933 188.712 42.4707 189.237C42.8481 189.761 43.0517 190.391 43.0531 191.037V198.64C43.0524 199.045 43.1318 199.447 43.2867 199.822C43.4416 200.198 43.6689 200.539 43.9558 200.826C44.2426 201.113 44.5833 201.341 44.9583 201.496C45.3333 201.652 45.7354 201.732 46.1414 201.732H63.5541C63.9602 201.732 64.3623 201.652 64.7374 201.497C65.1125 201.341 65.4532 201.113 65.7401 200.826C66.027 200.539 66.2544 200.198 66.4094 199.823C66.5643 199.447 66.6437 199.045 66.643 198.64V191.037C66.6443 190.391 66.848 189.761 67.2254 189.237C67.6028 188.712 68.135 188.319 68.7475 188.112C70.5941 187.485 72.3958 186.734 74.1402 185.863C74.7204 185.572 75.3774 185.471 76.0182 185.574C76.6591 185.677 77.2512 185.979 77.7107 186.437L83.104 191.828C83.6839 192.407 84.4699 192.732 85.2895 192.732C86.1091 192.732 86.8952 192.407 87.475 191.828L99.7921 179.517C100.079 179.23 100.307 178.89 100.462 178.515C100.618 178.141 100.698 177.739 100.698 177.334C100.698 176.928 100.618 176.527 100.462 176.152C100.307 175.778 100.079 175.437 99.7921 175.151L94.2907 169.652C93.8369 169.196 93.5367 168.61 93.432 167.975C93.3272 167.34 93.4231 166.689 93.7063 166.111C94.5411 164.395 95.2622 162.627 95.8647 160.817C96.0676 160.2 96.4602 159.663 96.9866 159.282C97.5129 158.902 98.146 158.697 98.7956 158.697H106.607C107.013 158.698 107.415 158.618 107.789 158.463C108.164 158.308 108.505 158.08 108.791 157.793C109.078 157.507 109.306 157.166 109.461 156.792C109.616 156.417 109.696 156.015 109.695 155.61V138.199C109.696 137.381 109.371 136.596 108.792 136.017C108.214 135.438 107.429 135.113 106.61 135.112ZM54.8518 172.632C49.7605 172.632 44.7834 171.123 40.55 168.296C36.3166 165.469 33.0169 161.451 31.0684 156.75C29.1198 152.048 28.6099 146.874 29.603 141.883C30.5962 136.892 33.0478 132.307 36.6479 128.709C40.248 125.11 44.8348 122.66 49.8282 121.667C54.8217 120.675 59.9975 121.184 64.7012 123.132C69.4048 125.08 73.425 128.378 76.2532 132.609C79.0815 136.841 80.5909 141.816 80.5904 146.905C80.5896 153.728 77.8777 160.271 73.0509 165.095C68.2241 169.92 61.6778 172.631 54.8518 172.632Z" fill="#34475B" stroke="#EFF4F9" stroke-width="2" mask="url(#path-3-inside-3_37_406)"/>
<path d="M81.2105 248.431L383.366 248.431C390.786 248.431 396.801 242.418 396.801 235.001L396.801 13.8769C396.801 6.46005 390.786 0.44754 383.366 0.44754L81.2105 0.44754C73.7903 0.44754 67.7751 6.46005 67.7751 13.8769L67.7751 235.001C67.7751 242.418 73.7903 248.431 81.2105 248.431Z" fill="#34475B"/>
<path d="M67.3268 235.001V13.8768C67.3313 10.1977 68.7954 6.67055 71.3982 4.06908C74.0009 1.46762 77.5297 0.00425646 81.2105 0L383.367 0C387.048 0.00425646 390.577 1.46762 393.179 4.06908C395.782 6.67055 397.246 10.1977 397.251 13.8768V235.001C397.246 238.68 395.782 242.208 393.179 244.809C390.577 247.411 387.048 248.874 383.367 248.878H81.2105C77.5297 248.874 74.0008 247.411 71.398 244.809C68.7952 242.208 67.3311 238.68 67.3268 235.001ZM81.2105 0.895518C77.7671 0.89947 74.466 2.26847 72.0311 4.70218C69.5963 7.13589 68.2267 10.4356 68.2228 13.8774V235.001C68.2267 238.443 69.5963 241.743 72.0311 244.176C74.466 246.61 77.7671 247.979 81.2105 247.983H383.367C386.81 247.979 390.112 246.61 392.546 244.176C394.981 241.743 396.351 238.443 396.355 235.001V13.8768C396.351 10.435 394.981 7.13518 392.546 4.70144C390.112 2.26769 386.81 0.898744 383.367 0.894943L81.2105 0.895518Z" fill="#292A2E"/>
<path d="M67.7751 13.8751V27.3883H396.8V13.8751C396.8 10.3138 395.385 6.89839 392.866 4.37997C390.347 1.86155 386.93 0.44641 383.367 0.445801H81.2105C77.6472 0.445801 74.2298 1.86067 71.7102 4.37916C69.1906 6.89764 67.7751 10.3134 67.7751 13.8751Z" fill="#2C2C2C"/>
<path d="M125.69 150.461C118.495 150.461 111.462 148.329 105.48 144.333C99.4977 140.338 94.8351 134.659 92.0819 128.015C89.3286 121.371 88.6082 114.06 90.0118 107.007C91.4154 99.9538 94.88 93.4749 99.9674 88.3898C105.055 83.3047 111.537 79.8417 118.593 78.4387C125.65 77.0357 132.964 77.7557 139.611 80.5078C146.258 83.2598 151.939 87.9203 155.936 93.8998C159.933 99.8792 162.067 106.909 162.067 114.101C162.056 123.741 158.22 132.983 151.4 139.799C144.58 146.616 135.334 150.45 125.69 150.461ZM125.69 78.8888C118.722 78.8888 111.912 80.954 106.118 84.8231C100.325 88.6922 95.81 94.1916 93.1437 100.626C90.4774 107.06 89.7798 114.14 91.1391 120.97C92.4983 127.801 95.8534 134.075 100.78 138.999C105.707 143.924 111.984 147.277 118.817 148.636C125.651 149.995 132.734 149.297 139.171 146.632C145.608 143.967 151.11 139.454 154.981 133.663C158.851 127.873 160.918 121.065 160.918 114.101C160.907 104.765 157.193 95.8142 150.589 89.2126C143.984 82.6109 135.03 78.8973 125.69 78.8865V78.8888Z" fill="#EFF4F9"/>
<path d="M232.288 150.461C225.093 150.461 218.06 148.329 212.078 144.333C206.096 140.338 201.433 134.659 198.68 128.015C195.927 121.371 195.206 114.06 196.61 107.007C198.013 99.9538 201.478 93.4749 206.565 88.3898C211.653 83.3047 218.135 79.8417 225.191 78.4387C232.248 77.0357 239.562 77.7557 246.209 80.5078C252.856 83.2598 258.537 87.9203 262.534 93.8998C266.531 99.8792 268.665 106.909 268.665 114.101C268.654 123.741 264.818 132.983 257.998 139.799C251.178 146.616 241.932 150.45 232.288 150.461ZM232.288 78.8888C225.32 78.8888 218.51 80.954 212.716 84.8231C206.923 88.6922 202.408 94.1916 199.742 100.626C197.075 107.06 196.378 114.14 197.737 120.97C199.096 127.801 202.451 134.075 207.378 138.999C212.305 143.924 218.582 147.277 225.415 148.636C232.249 149.995 239.332 149.297 245.769 146.632C252.206 143.967 257.708 139.454 261.579 133.663C265.449 127.873 267.516 121.065 267.516 114.101C267.505 104.765 263.791 95.8142 257.186 89.2126C250.582 82.6109 241.628 78.8973 232.288 78.8865V78.8888Z" fill="#EFF4F9"/>
<path d="M338.887 150.461C331.692 150.461 324.659 148.329 318.677 144.333C312.695 140.338 308.032 134.659 305.279 128.015C302.526 121.371 301.805 114.06 303.209 107.007C304.612 99.9538 308.077 93.4749 313.164 88.3898C318.252 83.3047 324.734 79.8417 331.79 78.4387C338.847 77.0357 346.161 77.7557 352.808 80.5078C359.455 83.2598 365.136 87.9203 369.133 93.8998C373.131 99.8792 375.264 106.909 375.264 114.101C375.253 123.741 371.417 132.983 364.597 139.799C357.778 146.616 348.531 150.45 338.887 150.461ZM338.887 78.8888C331.92 78.8888 325.109 80.954 319.316 84.8231C313.522 88.6922 309.007 94.1916 306.341 100.626C303.674 107.06 302.977 114.14 304.336 120.97C305.695 127.801 309.051 134.075 313.977 138.999C318.904 143.924 325.181 147.277 332.014 148.636C338.848 149.995 345.931 149.297 352.368 146.632C358.805 143.967 364.307 139.454 368.178 133.663C372.049 127.873 374.115 121.065 374.115 114.101C374.104 104.765 370.39 95.8142 363.786 89.2126C357.181 82.6109 348.227 78.8973 338.887 78.8865V78.8888Z" fill="#EFF4F9"/>
<path opacity="0.6" d="M361.532 119.339V96.6992H335.398V114.463H354.721L361.532 119.339Z" fill="#EFF4F9"/>
<path d="M316.241 135.791V105.172H351.586V129.196H325.453L316.241 135.791Z" fill="#EFF4F9"/>
<path d="M324.253 120.481C325.944 120.481 327.316 119.11 327.316 117.42C327.316 115.729 325.944 114.358 324.253 114.358C322.561 114.358 321.19 115.729 321.19 117.42C321.19 119.11 322.561 120.481 324.253 120.481Z" fill="#EFF4F9"/>
<path d="M333.914 120.481C335.605 120.481 336.977 119.11 336.977 117.42C336.977 115.729 335.605 114.358 333.914 114.358C332.222 114.358 330.851 115.729 330.851 117.42C330.851 119.11 332.222 120.481 333.914 120.481Z" fill="#EFF4F9"/>
<path d="M343.575 120.481C345.266 120.481 346.638 119.11 346.638 117.42C346.638 115.729 345.266 114.358 343.575 114.358C341.883 114.358 340.512 115.729 340.512 117.42C340.512 119.11 341.883 120.481 343.575 120.481Z" fill="#EFF4F9"/>
<path d="M143.814 125.226C144.166 125.461 144.414 125.822 144.507 126.235C144.6 126.647 144.53 127.08 144.312 127.443L142.331 130.743C141.805 131.635 140.956 132.291 139.96 132.575C136.666 133.478 129.403 133.66 117.762 122.025C106.12 110.39 106.303 103.126 107.207 99.8361C107.49 98.84 108.146 97.991 109.039 97.4649L112.341 95.4849C112.704 95.2674 113.137 95.1979 113.55 95.2908C113.962 95.3838 114.323 95.632 114.558 95.9841L119.823 103.878C120.053 104.224 120.144 104.644 120.077 105.054C120.011 105.463 119.792 105.833 119.464 106.088L116.507 108.386C116.196 108.625 115.982 108.968 115.903 109.351C115.824 109.735 115.884 110.134 116.074 110.477C116.942 112.037 117.764 113.875 121.837 117.951C125.909 122.026 127.756 122.843 129.314 123.711C129.657 123.901 130.057 123.961 130.44 123.882C130.824 123.802 131.166 123.588 131.405 123.277L133.704 120.323C133.959 119.995 134.329 119.775 134.739 119.709C135.149 119.642 135.569 119.733 135.915 119.964L143.814 125.226Z" fill="#EFF4F9"/>
<path opacity="0.6" d="M251.034 126.88H213.689C213.269 126.883 212.865 126.718 212.567 126.423C212.268 126.127 212.099 125.726 212.097 125.306L211.967 102.933C211.966 102.748 212.001 102.564 212.071 102.392C212.141 102.221 212.244 102.064 212.374 101.933C212.505 101.801 212.66 101.696 212.831 101.624C213.002 101.553 213.185 101.515 213.371 101.514L251.061 101.321C251.435 101.319 251.794 101.466 252.06 101.729C252.326 101.992 252.477 102.349 252.479 102.723L252.61 125.289C252.611 125.497 252.571 125.703 252.492 125.896C252.414 126.088 252.298 126.263 252.152 126.411C252.005 126.559 251.832 126.676 251.64 126.757C251.448 126.837 251.242 126.879 251.034 126.88Z" fill="#EFF4F9"/>
<path d="M252.077 101.744C249.848 103.381 233.654 115.294 233.637 115.306C233.197 115.552 232.699 115.677 232.195 115.667C231.691 115.657 231.199 115.512 230.769 115.248L212.35 101.962C212.481 101.822 212.64 101.71 212.816 101.633C212.992 101.555 213.181 101.515 213.374 101.514L251.06 101.319C251.25 101.318 251.437 101.355 251.612 101.428C251.787 101.501 251.945 101.609 252.077 101.744Z" fill="#EFF4F9"/>
<path d="M406.652 129.34C413.886 129.34 419.749 123.479 419.749 116.249C419.749 109.019 413.886 103.158 406.652 103.158C399.419 103.158 393.555 109.019 393.555 116.249C393.555 123.479 399.419 129.34 406.652 129.34Z" fill="#367CFF"/>
<path d="M400.515 115.009C400.178 115.009 399.848 114.911 399.567 114.726C399.285 114.541 399.064 114.277 398.931 113.968C398.695 113.421 393.212 100.342 399.167 81.1568C405.617 60.3749 428.084 60.1331 428.31 60.1331C428.767 60.1331 429.206 60.3146 429.529 60.6378C429.853 60.961 430.034 61.3993 430.034 61.8563C430.034 62.3133 429.853 62.7517 429.529 63.0748C429.206 63.398 428.767 63.5796 428.31 63.5796C427.49 63.5796 408.146 63.8501 402.457 82.1769C396.877 100.156 402.041 112.479 402.094 112.602C402.207 112.864 402.254 113.15 402.229 113.434C402.204 113.719 402.109 113.992 401.952 114.231C401.795 114.47 401.581 114.665 401.33 114.801C401.079 114.937 400.798 115.008 400.512 115.008L400.515 115.009Z" fill="#232F3D"/>
<path d="M401.911 129.34C409.144 129.34 415.008 123.479 415.008 116.249C415.008 109.019 409.144 103.158 401.911 103.158C394.678 103.158 388.814 109.019 388.814 116.249C388.814 123.479 394.678 129.34 401.911 129.34Z" fill="#232F3D"/>
<path opacity="0.3" d="M401.911 129.34C409.144 129.34 415.008 123.479 415.008 116.249C415.008 109.019 409.144 103.158 401.911 103.158C394.678 103.158 388.814 109.019 388.814 116.249C388.814 123.479 394.678 129.34 401.911 129.34Z" fill="white"/>
<path d="M405.053 129.34C412.286 129.34 418.15 123.479 418.15 116.249C418.15 109.019 412.286 103.158 405.053 103.158C397.82 103.158 391.956 109.019 391.956 116.249C391.956 123.479 397.82 129.34 405.053 129.34Z" fill="#232F3D"/>
<path d="M466.831 92.6945C466.831 92.6945 471.039 112.848 476.064 118.945C490.532 136.498 496.882 157.583 486.5 170.444C476.119 183.305 403.797 193.693 394.552 168.575C386.77 147.427 395.119 143.683 395.22 125.359C395.266 117.067 396.414 99.5806 396.414 99.5806" fill="#0A0A0A"/>
<path d="M406.387 157.912C406.52 157.895 407.987 182.227 436.267 180.106C455.845 178.64 462.826 157.876 463.277 157.876C461.166 157.428 457.612 156.775 456.675 156.276C453.591 154.62 449.778 152.897 448.783 146.913C448.208 143.466 449.182 125.819 448.883 122.328L418.831 129.032C419.251 136.402 422.19 153.488 411.889 156.512C410.172 157.015 408.326 157.476 406.387 157.912Z" fill="#E98862"/>
<path opacity="0.5" d="M418.407 149.533C418.878 148.016 419.181 146.453 419.311 144.871C419.641 141.26 419.575 137.623 419.114 134.027C425.222 133.203 430.976 130.683 435.722 126.753C436.281 128.813 439.35 137.814 438.5 139.772C436.895 143.473 429.348 149.533 418.407 149.533Z" fill="#0C0C0C"/>
<path d="M423.757 144.188C435.653 143.741 450.212 136.998 451.25 120.944L452.188 106.458C453.226 90.4043 445.632 76.8446 430.51 75.8669C415.387 74.8904 403.241 87.1732 402.203 103.228L401.788 109.64C401.39 115.803 402.533 144.983 423.757 144.188Z" fill="#E98862"/>
<path opacity="0.1" d="M428.456 122.703C430.419 122.673 431.993 121.482 431.971 120.042C431.949 118.603 430.339 117.46 428.376 117.49C426.413 117.52 424.839 118.711 424.861 120.151C424.883 121.59 426.492 122.733 428.456 122.703Z" fill="#0C0C0C"/>
<path opacity="0.1" d="M407.274 119.788C407.291 121.224 405.718 122.416 403.755 122.449C403.415 122.454 403.076 122.423 402.743 122.359C402.426 120.684 402.202 119.062 402.048 117.553C402.567 117.347 403.119 117.239 403.677 117.235C405.642 117.203 407.251 118.345 407.274 119.788Z" fill="#0C0C0C"/>
<path d="M406.739 108.975C407.766 108.975 408.599 108.142 408.599 107.115C408.599 106.088 407.766 105.256 406.739 105.256C405.711 105.256 404.878 106.088 404.878 107.115C404.878 108.142 405.711 108.975 406.739 108.975Z" fill="#0C0C0C"/>
<path d="M425.146 110.349C426.173 110.349 427.006 109.517 427.006 108.49C427.006 107.463 426.173 106.63 425.146 106.63C424.119 106.63 423.286 107.463 423.286 108.49C423.286 109.517 424.119 110.349 425.146 110.349Z" fill="#0C0C0C"/>
<path opacity="0.5" d="M416.404 123.01H416.374C415.761 122.965 415.151 122.888 414.546 122.777C413.643 122.604 412.447 122.282 412.5 121.479C412.557 120.564 415.704 110.856 416.063 109.752C416.097 109.659 416.166 109.583 416.255 109.54C416.344 109.497 416.446 109.49 416.54 109.52C416.634 109.551 416.713 109.617 416.76 109.704C416.806 109.791 416.817 109.893 416.79 109.988C415.448 114.124 413.303 120.913 413.264 121.528C413.396 121.795 414.904 122.148 416.424 122.246C416.522 122.254 416.614 122.299 416.68 122.371C416.746 122.444 416.781 122.54 416.778 122.638C416.776 122.736 416.735 122.83 416.666 122.899C416.596 122.968 416.502 123.008 416.404 123.01L416.404 123.01Z" fill="#0C0C0C"/>
<path opacity="0.5" d="M419.426 129.514C416.977 129.499 414.566 128.908 412.387 127.791C412.342 127.769 412.302 127.738 412.269 127.7C412.235 127.663 412.21 127.619 412.194 127.571C412.161 127.476 412.167 127.371 412.212 127.28C412.256 127.189 412.335 127.119 412.431 127.086C412.527 127.053 412.632 127.06 412.723 127.104C417.422 129.402 421.803 129.328 425.387 126.892C425.46 126.84 425.535 126.793 425.612 126.749C425.702 126.708 425.804 126.703 425.898 126.736C425.991 126.769 426.068 126.836 426.112 126.924C426.157 127.013 426.166 127.115 426.137 127.209C426.108 127.304 426.043 127.383 425.957 127.431C425.928 127.447 425.882 127.479 425.817 127.524C423.932 128.808 421.707 129.501 419.426 129.514Z" fill="#0C0C0C"/>
<path d="M464.432 109.923L450.885 109.125C440.352 106.301 435.18 89.314 435.18 89.314C435.18 89.314 426.754 102.686 396.389 99.5668C396.389 99.5668 394.909 57.0782 440.048 64.2722C454.564 66.586 466.434 79.3306 467.508 98.4243C468.261 111.805 464.432 109.923 464.432 109.923Z" fill="#0A0A0A"/>
<path d="M449.995 125.774C454.592 126.072 458.634 121.397 458.931 116.804C459.228 112.21 455.667 109.436 451.071 109.139L448.503 112.064L446.043 125.519L449.995 125.774Z" fill="#E98862"/>
<path d="M411.909 102.91C410.682 102.27 409.308 101.965 407.926 102.028C407.231 102.055 406.544 102.186 405.889 102.418C405.227 102.648 404.597 102.96 404.013 103.348L403.994 103.359C403.929 103.399 403.851 103.412 403.777 103.395C403.702 103.378 403.637 103.332 403.596 103.268C403.555 103.204 403.54 103.126 403.555 103.052C403.57 102.977 403.614 102.911 403.677 102.868C404.292 102.429 404.96 102.07 405.665 101.798C406.374 101.521 407.12 101.353 407.88 101.298C409.417 101.177 410.959 101.47 412.344 102.148C412.448 102.2 412.527 102.291 412.564 102.401C412.601 102.512 412.593 102.632 412.54 102.736C412.488 102.841 412.397 102.92 412.287 102.957C412.176 102.993 412.056 102.985 411.951 102.933L411.941 102.927L411.909 102.91Z" fill="#0C0C0C"/>
<path d="M424.19 102.95C425.649 102.45 427.215 102.351 428.726 102.663C429.472 102.812 430.192 103.072 430.862 103.435C431.527 103.792 432.145 104.232 432.701 104.743C432.757 104.794 432.791 104.865 432.796 104.94C432.802 105.015 432.777 105.09 432.729 105.148C432.68 105.206 432.611 105.243 432.536 105.251C432.461 105.259 432.385 105.238 432.326 105.192L432.308 105.178C431.777 104.721 431.191 104.332 430.563 104.021C429.941 103.71 429.276 103.494 428.59 103.382C427.226 103.147 425.825 103.278 424.528 103.761L424.497 103.774C424.443 103.795 424.386 103.805 424.328 103.804C424.27 103.803 424.213 103.79 424.161 103.767C424.108 103.744 424.06 103.71 424.02 103.669C423.98 103.627 423.949 103.578 423.928 103.525C423.907 103.471 423.897 103.414 423.898 103.356C423.899 103.298 423.911 103.241 423.935 103.189C423.958 103.136 423.991 103.088 424.033 103.048C424.074 103.008 424.123 102.977 424.177 102.956L424.19 102.95Z" fill="#0C0C0C"/>
<path opacity="0.52" d="M419.352 133.139C418.91 133.143 418.467 133.109 418.03 133.039C417.981 133.031 417.933 133.013 417.891 132.987C417.848 132.961 417.811 132.926 417.781 132.886C417.752 132.845 417.73 132.799 417.719 132.75C417.707 132.701 417.705 132.651 417.713 132.601C417.721 132.552 417.738 132.504 417.765 132.461C417.791 132.419 417.825 132.381 417.866 132.352C417.907 132.323 417.953 132.301 418.001 132.29C418.05 132.278 418.101 132.276 418.151 132.284C420.78 132.702 422.105 131.556 422.161 131.507C422.236 131.439 422.336 131.404 422.437 131.409C422.538 131.414 422.633 131.459 422.701 131.535C422.769 131.61 422.804 131.709 422.799 131.81C422.794 131.911 422.749 132.006 422.674 132.074C421.723 132.802 420.549 133.178 419.352 133.139Z" fill="#0C0C0C"/>
<path d="M451.032 108.924C441.715 106.82 437.944 101.091 436.422 96.6556C435.425 93.6953 435.058 90.5593 435.344 87.4489L435.632 87.4873C435.351 90.5572 435.715 93.6518 436.7 96.5729C438.2 100.935 441.915 106.568 451.099 108.644L451.032 108.924Z" fill="#0C0C0C"/>
<path d="M307.747 167.279L298.525 149.897C298.322 149.516 298.042 149.18 297.703 148.913C297.363 148.645 296.972 148.451 296.553 148.343C296.134 148.235 295.698 148.215 295.271 148.285C294.844 148.355 294.437 148.513 294.074 148.748C293.419 149.204 292.956 149.888 292.775 150.665C292.595 151.443 292.709 152.26 293.097 152.958L295.075 156.685L283.474 147.818C282.202 146.809 279.995 146.385 278.957 147.887C278.521 148.439 278.284 149.122 278.285 149.826C278.287 150.529 278.527 151.212 278.966 151.761C278.954 151.771 278.942 151.782 278.932 151.793C278.924 151.804 278.922 151.816 278.916 151.826L276.954 150.268C276.591 149.98 276.167 149.777 275.715 149.673C275.263 149.57 274.793 149.568 274.341 149.669C273.888 149.77 273.463 149.97 273.098 150.256C272.733 150.541 272.436 150.905 272.229 151.32C271.916 151.979 271.839 152.727 272.011 153.436C272.184 154.146 272.594 154.775 273.175 155.218L274.011 155.88C274.003 155.913 274 155.947 274.004 155.981C273.336 155.665 272.578 155.596 271.864 155.788C271.15 155.979 270.528 156.418 270.109 157.026C269.669 157.705 269.502 158.525 269.64 159.322C269.779 160.118 270.213 160.834 270.856 161.325L272.93 162.968C272.884 162.965 272.838 162.974 272.796 162.992C272.754 163.011 272.718 163.039 272.689 163.075C272.657 163.119 272.639 163.171 272.636 163.225C271.963 163.109 271.27 163.217 270.664 163.533C270.058 163.848 269.573 164.354 269.283 164.972C268.991 165.627 268.929 166.362 269.107 167.057C269.285 167.752 269.693 168.366 270.264 168.801L287.764 182.668C290.213 184.608 293.185 185.772 296.3 186.013C299.415 186.253 302.53 185.559 305.248 184.018C307.591 182.689 309.323 180.5 310.077 177.915C310.83 175.33 310.546 172.553 309.284 170.174L307.747 167.279Z" fill="#E98862"/>
<g opacity="0.2">
<path d="M290.406 160.594C290.358 160.653 290.29 160.69 290.216 160.699C290.141 160.708 290.066 160.688 290.007 160.642L278.986 152.195C278.956 152.172 278.93 152.143 278.912 152.111C278.893 152.078 278.88 152.042 278.876 152.005C278.871 151.967 278.873 151.929 278.883 151.893C278.893 151.856 278.909 151.822 278.932 151.792C278.955 151.762 278.984 151.737 279.017 151.718C279.049 151.699 279.086 151.687 279.123 151.682C279.16 151.677 279.198 151.68 279.235 151.689C279.271 151.699 279.306 151.716 279.336 151.739L290.357 160.186C290.417 160.233 290.456 160.301 290.466 160.376C290.476 160.452 290.456 160.528 290.41 160.588L290.406 160.594Z" fill="#0C0C0C"/>
</g>
<g opacity="0.2">
<path d="M286.812 165.555C286.765 165.614 286.697 165.652 286.622 165.661C286.548 165.669 286.473 165.649 286.413 165.603L274.115 156.176C274.055 156.13 274.015 156.062 274.005 155.986C273.995 155.911 274.016 155.835 274.062 155.774C274.11 155.716 274.178 155.679 274.252 155.669C274.327 155.659 274.403 155.677 274.464 155.721L286.764 165.145C286.824 165.192 286.864 165.26 286.874 165.335C286.884 165.411 286.863 165.487 286.817 165.547L286.812 165.555Z" fill="#0C0C0C"/>
</g>
<g opacity="0.2">
<path d="M282.952 170.951C282.905 171.01 282.837 171.048 282.762 171.057C282.688 171.065 282.613 171.045 282.553 170.999L272.742 163.479C272.681 163.433 272.642 163.365 272.632 163.289C272.622 163.213 272.642 163.137 272.689 163.076C272.735 163.016 272.804 162.976 272.879 162.966C272.955 162.956 273.031 162.977 273.092 163.023L282.903 170.545C282.963 170.591 283.002 170.659 283.012 170.735C283.022 170.81 283.002 170.886 282.956 170.947L282.952 170.951Z" fill="#0C0C0C"/>
</g>
<path d="M373.432 168.242L343.613 220.487L313.136 164.864L276.717 185.189L325.747 271.306C327.335 274.073 329.549 276.429 332.212 278.187C336.68 281.113 342.127 282.146 347.356 281.058C352.585 279.97 357.167 276.85 360.095 272.385L360.347 272.001L412.643 192.234L373.432 168.242Z" fill="#232F3D"/>
<path d="M307.747 167.279L298.525 149.897C298.322 149.515 298.042 149.18 297.703 148.912C297.363 148.645 296.972 148.451 296.553 148.343C296.134 148.235 295.698 148.215 295.271 148.285C294.844 148.355 294.437 148.513 294.074 148.748C293.419 149.204 292.956 149.888 292.775 150.665C292.595 151.443 292.709 152.26 293.097 152.958L295.075 156.685L298.149 163.415" fill="#E98862"/>
<path d="M436.795 174.023C456.387 173.1 457.211 156.479 457.211 156.479C457.211 156.479 466.919 157.106 473.372 157.979C483.937 159.407 490.906 162.988 496.453 168.532C501.613 173.69 504.754 179.269 501.43 214.894C499.023 240.685 500.717 297.426 500.717 297.426H382.477C382.477 297.426 375.386 223.059 374.398 211.447C372.512 189.281 364.787 176.787 375.584 165.369C383.414 157.088 403.628 156.479 411.765 156.48C411.897 156.48 410.114 175.281 436.795 174.023Z" fill="#232F3D"/>
<path d="M375.087 207.741C375.082 207.664 375.047 207.593 374.99 207.543C374.932 207.492 374.857 207.467 374.781 207.472C374.705 207.476 374.634 207.511 374.583 207.568C374.533 207.626 374.507 207.701 374.512 207.777L376.916 246.164C376.921 246.233 376.95 246.298 376.998 246.347C377.047 246.397 377.111 246.427 377.18 246.432C377.194 246.433 377.207 246.433 377.221 246.432C377.259 246.43 377.295 246.42 377.329 246.404C377.363 246.387 377.394 246.364 377.419 246.336C377.444 246.307 377.463 246.274 377.475 246.238C377.487 246.203 377.492 246.165 377.49 246.127" fill="#0C0C0C"/>
<path d="M401.137 263.777L382.011 259.132C381.591 259.03 381.154 259.016 380.728 259.092C380.302 259.168 379.897 259.332 379.538 259.573C379.179 259.814 378.874 260.127 378.643 260.493C378.412 260.858 378.259 261.268 378.195 261.695C378.101 262.488 378.305 263.287 378.767 263.939C379.229 264.59 379.917 265.046 380.697 265.219L384.798 266.215L370.462 269C368.863 269.281 367.081 270.65 367.516 272.422C367.638 273.115 367.992 273.746 368.52 274.212C369.047 274.678 369.717 274.952 370.42 274.988C370.419 275.004 370.419 275.019 370.42 275.035C370.42 275.047 370.43 275.057 370.434 275.069L367.968 275.503C367.511 275.584 367.078 275.765 366.701 276.035C366.323 276.304 366.01 276.654 365.785 277.059C365.56 277.465 365.428 277.915 365.399 278.378C365.37 278.841 365.445 279.304 365.618 279.734C365.904 280.406 366.412 280.959 367.058 281.302C367.703 281.644 368.446 281.754 369.163 281.614L370.213 281.429C370.232 281.457 370.256 281.481 370.284 281.501C369.604 281.79 369.049 282.312 368.719 282.973C368.389 283.633 368.304 284.39 368.481 285.107C368.696 285.887 369.198 286.557 369.886 286.982C370.574 287.408 371.397 287.559 372.192 287.405L374.799 286.945C374.766 286.978 374.742 287.017 374.728 287.061C374.714 287.105 374.711 287.151 374.719 287.196C374.73 287.249 374.757 287.298 374.796 287.336C374.262 287.762 373.883 288.351 373.717 289.013C373.551 289.676 373.607 290.374 373.877 291.001C374.173 291.655 374.682 292.189 375.32 292.517C375.958 292.845 376.688 292.948 377.393 292.81L399.387 288.932C402.464 288.39 405.308 286.942 407.556 284.773C409.804 282.604 411.352 279.814 412.003 276.759C412.564 274.126 412.076 271.377 410.642 269.098C409.209 266.818 406.942 265.187 404.324 264.551L401.137 263.777Z" fill="#E98862"/>
<g opacity="0.2">
<path d="M384.624 272.302C384.636 272.377 384.619 272.453 384.576 272.514C384.533 272.576 384.468 272.619 384.394 272.633L370.757 275.264C370.72 275.271 370.682 275.27 370.645 275.263C370.608 275.255 370.573 275.24 370.542 275.219C370.511 275.198 370.484 275.171 370.463 275.14C370.443 275.108 370.428 275.073 370.421 275.036C370.414 274.999 370.414 274.961 370.422 274.924C370.429 274.887 370.444 274.852 370.465 274.82C370.486 274.789 370.513 274.762 370.545 274.742C370.577 274.721 370.612 274.707 370.649 274.699L384.285 272.068C384.323 272.061 384.361 272.061 384.398 272.069C384.435 272.077 384.47 272.092 384.502 272.113C384.533 272.134 384.56 272.162 384.58 272.193C384.601 272.225 384.615 272.261 384.622 272.298L384.624 272.302Z" fill="#0C0C0C"/>
</g>
<g opacity="0.2">
<path d="M385.953 278.282C385.966 278.356 385.948 278.432 385.905 278.494C385.862 278.555 385.797 278.598 385.723 278.612L370.505 281.548C370.467 281.555 370.429 281.555 370.392 281.547C370.355 281.539 370.32 281.524 370.289 281.503C370.258 281.482 370.231 281.454 370.21 281.423C370.19 281.391 370.175 281.356 370.168 281.318C370.157 281.244 370.174 281.167 370.217 281.105C370.259 281.042 370.324 280.998 370.398 280.982L385.617 278.046C385.654 278.039 385.692 278.039 385.729 278.047C385.766 278.055 385.802 278.07 385.833 278.091C385.864 278.112 385.891 278.14 385.911 278.171C385.932 278.203 385.946 278.239 385.953 278.276V278.282Z" fill="#0C0C0C"/>
</g>
<g opacity="0.2">
<path d="M387.425 284.75C387.437 284.824 387.42 284.9 387.377 284.962C387.334 285.023 387.269 285.066 387.195 285.08L375.056 287.422C375.018 287.429 374.98 287.429 374.943 287.422C374.906 287.414 374.871 287.399 374.84 287.378C374.809 287.357 374.782 287.33 374.761 287.299C374.74 287.267 374.726 287.232 374.719 287.195C374.712 287.158 374.712 287.12 374.719 287.083C374.727 287.046 374.742 287.011 374.763 286.979C374.784 286.948 374.811 286.921 374.842 286.9C374.874 286.88 374.909 286.865 374.946 286.858L387.086 284.516C387.123 284.509 387.161 284.509 387.198 284.516C387.235 284.524 387.271 284.539 387.302 284.56C387.333 284.582 387.36 284.609 387.381 284.641C387.401 284.673 387.416 284.708 387.423 284.745L387.425 284.75Z" fill="#0C0C0C"/>
</g>
<path d="M399.232 296.452L502.006 297.013C505.316 297.373 508.665 296.961 511.789 295.811C514.914 294.66 517.729 292.801 520.014 290.38C522.298 287.959 523.991 285.042 524.959 281.857C525.926 278.673 526.142 275.308 525.59 272.025L502.694 180.348C502.239 177.546 501.235 174.86 499.738 172.447C498.241 170.034 496.282 167.94 493.973 166.286C491.664 164.632 489.051 163.451 486.284 162.81C483.516 162.17 480.65 162.082 477.848 162.553C475.047 163.023 472.366 164.043 469.961 165.553C467.555 167.063 465.472 169.033 463.831 171.351C462.19 173.668 461.023 176.287 460.398 179.057C459.773 181.827 459.703 184.693 460.19 187.49L477.75 256.556L399.729 259.12L399.232 296.452Z" fill="#232F3D"/>
<path d="M491.183 256.266C491.256 256.266 491.325 256.238 491.377 256.189C491.43 256.139 491.462 256.072 491.468 256C491.473 255.928 491.451 255.857 491.406 255.801C491.361 255.744 491.297 255.707 491.225 255.695L477.915 256.179C477.878 256.172 477.84 256.174 477.803 256.183C477.766 256.191 477.731 256.208 477.701 256.23C477.67 256.253 477.645 256.281 477.626 256.314C477.606 256.346 477.594 256.382 477.589 256.42C477.578 256.495 477.597 256.572 477.642 256.633C477.687 256.694 477.755 256.735 477.83 256.746L491.14 256.263C491.155 256.265 491.169 256.266 491.183 256.266Z" fill="#0C0C0C"/>
<path d="M499.017 297.426C499.093 297.431 499.168 297.405 499.225 297.355C499.283 297.304 499.318 297.233 499.323 297.157C499.328 297.081 499.302 297.006 499.252 296.949C499.201 296.891 499.13 296.856 499.054 296.851L399.833 296.233L400.269 259.47L477.823 256.745C477.867 256.751 477.913 256.747 477.955 256.732C477.998 256.717 478.036 256.692 478.067 256.66C478.099 256.628 478.122 256.589 478.135 256.546C478.148 256.503 478.151 256.457 478.144 256.413L469.686 214.9C469.681 214.862 469.667 214.826 469.648 214.794C469.628 214.762 469.602 214.734 469.571 214.712C469.54 214.69 469.505 214.674 469.468 214.666C469.431 214.658 469.393 214.657 469.355 214.664C469.28 214.677 469.213 214.719 469.169 214.781C469.125 214.843 469.107 214.92 469.12 214.995L477.51 256.123L400.05 258.86C400.012 258.855 399.974 258.857 399.937 258.867C399.9 258.878 399.865 258.895 399.835 258.919C399.805 258.942 399.78 258.972 399.761 259.006C399.743 259.039 399.731 259.076 399.727 259.114L399.23 296.451C399.222 296.526 399.243 296.601 399.29 296.66C399.336 296.719 399.404 296.758 399.478 296.767L498.977 297.423C498.99 297.425 499.004 297.426 499.017 297.426Z" fill="#0C0C0C"/>
<path d="M350.823 286.639L322.707 200.253C322.213 198.735 321.251 197.412 319.959 196.474C318.667 195.536 317.111 195.03 315.514 195.031H200.97C199.776 195.03 198.599 195.313 197.535 195.855C196.472 196.397 195.551 197.183 194.849 198.148C194.148 199.114 193.685 200.232 193.498 201.411C193.312 202.589 193.407 203.796 193.777 204.931L221.892 291.317C222.386 292.835 223.348 294.158 224.64 295.096C225.932 296.034 227.488 296.539 229.085 296.539H343.629C344.823 296.539 346 296.257 347.064 295.715C348.127 295.173 349.048 294.387 349.75 293.421C350.451 292.456 350.914 291.338 351.101 290.159C351.287 288.98 351.192 287.774 350.823 286.639Z" fill="#292A2E"/>
<path d="M404.563 289.535H327.888C325.978 289.535 324.429 291.083 324.429 292.993V293.081C324.429 294.991 325.978 296.539 327.888 296.539H404.563C406.474 296.539 408.022 294.991 408.022 293.081V292.993C408.022 291.083 406.474 289.535 404.563 289.535Z" fill="#292A2E"/>
<path d="M270.576 260.284C277.211 260.284 282.589 254.907 282.589 248.276C282.589 241.644 277.211 236.267 270.576 236.267C263.941 236.267 258.562 241.644 258.562 248.276C258.562 254.907 263.941 260.284 270.576 260.284Z" fill="white"/>
<path d="M457.808 114.285C457.351 114.285 456.912 114.103 456.589 113.78C456.265 113.457 456.084 113.018 456.084 112.561V92.9311C456.084 82.942 453.317 75.0271 448.084 70.0423C443.124 65.3171 436.006 63.1441 426.936 63.5789C426.709 63.591 426.482 63.5582 426.268 63.4823C426.054 63.4065 425.857 63.289 425.688 63.1368C425.52 62.9846 425.383 62.8006 425.286 62.5953C425.189 62.3901 425.133 62.1677 425.122 61.9409C425.111 61.714 425.145 61.4873 425.222 61.2737C425.299 61.0601 425.418 60.8638 425.571 60.6961C425.724 60.5285 425.909 60.3927 426.115 60.2966C426.321 60.2006 426.544 60.1462 426.771 60.1365C436.822 59.6511 444.796 62.1469 450.466 67.5465C456.398 73.1982 459.534 81.9758 459.534 92.9306V112.561C459.534 112.787 459.49 113.012 459.403 113.221C459.316 113.43 459.189 113.62 459.029 113.78C458.868 113.941 458.678 114.067 458.468 114.154C458.259 114.24 458.034 114.285 457.808 114.285Z" fill="#34475B"/>
<path d="M455.231 129.34C462.464 129.34 468.328 123.479 468.328 116.249C468.328 109.019 462.464 103.158 455.231 103.158C447.998 103.158 442.134 109.019 442.134 116.249C442.134 123.479 447.998 129.34 455.231 129.34Z" fill="#34475B"/>
<path d="M455.737 126.056C455.645 125.989 455.541 125.941 455.431 125.915C455.321 125.889 455.207 125.885 455.095 125.903C454.983 125.921 454.876 125.96 454.779 126.02C454.683 126.079 454.599 126.157 454.533 126.249L453.531 127.632C452.303 129.324 450.692 130.701 448.829 131.652C446.967 132.603 444.906 133.1 442.815 133.102H426.87V132.765C426.87 132.308 426.688 131.87 426.365 131.547C426.042 131.224 425.603 131.042 425.146 131.042H419.75C419.293 131.042 418.854 131.224 418.531 131.547C418.207 131.87 418.026 132.308 418.026 132.765V135.288C418.026 135.745 418.207 136.183 418.531 136.507C418.854 136.83 419.293 137.011 419.75 137.011H425.146C425.603 137.011 426.042 136.83 426.365 136.507C426.688 136.183 426.87 135.745 426.87 135.288V134.829H442.815C445.179 134.825 447.508 134.263 449.613 133.189C451.718 132.114 453.539 130.558 454.928 128.646L455.93 127.262C455.997 127.17 456.045 127.066 456.071 126.956C456.098 126.845 456.102 126.731 456.084 126.619C456.066 126.506 456.026 126.399 455.967 126.302C455.907 126.206 455.829 126.122 455.737 126.056Z" fill="#34475B"/>
<path d="M458.373 129.34C465.607 129.34 471.47 123.479 471.47 116.249C471.47 109.019 465.607 103.158 458.373 103.158C451.14 103.158 445.276 109.019 445.276 116.249C445.276 123.479 451.14 129.34 458.373 129.34Z" fill="#34475B"/>
<path opacity="0.3" d="M458.373 129.34C465.607 129.34 471.47 123.479 471.47 116.249C471.47 109.019 465.607 103.158 458.373 103.158C451.14 103.158 445.276 109.019 445.276 116.249C445.276 123.479 451.14 129.34 458.373 129.34Z" fill="white"/>
<path d="M209.63 298H527.426C527.578 298 527.724 297.94 527.832 297.832C527.94 297.724 528.001 297.578 528.001 297.426C528.001 297.273 527.94 297.127 527.832 297.019C527.724 296.912 527.578 296.851 527.426 296.851H209.63C209.477 296.851 209.331 296.912 209.223 297.019C209.115 297.127 209.055 297.273 209.055 297.426C209.055 297.578 209.115 297.724 209.223 297.832C209.331 297.94 209.477 298 209.63 298Z" fill="#292A2E"/>
</svg>
